<svg width="153" height="283" viewBox="0 0 153 283" fill="none" xmlns="http://www.w3.org/2000/svg">
<path d="M11.4214 282.843L0.107666 271.529L141.529 130.108L152.843 141.421L11.4214 282.843Z" fill="black"/>
<path d="M152.843 141.421L141.529 152.735L0.107666 11.3137L11.4214 0L152.843 141.421Z" fill="black"/>
<path d="M11.4214 282.843L0.107666 271.529L141.529 130.108L152.843 141.421L11.4214 282.843Z" fill="black"/>
<path d="M152.843 141.421L141.529 152.735L0.107666 11.3137L11.4214 0L152.843 141.421Z" fill="black"/>
<path d="M11.4214 282.843L0.107666 271.529L141.529 130.108L152.843 141.421L11.4214 282.843Z" fill="black"/>
<path d="M152.843 141.421L141.529 152.735L0.107666 11.3137L11.4214 0L152.843 141.421Z" fill="black"/>
</svg>
