<svg width="70" height="32" viewBox="0 0 70 32" fill="none" xmlns="http://www.w3.org/2000/svg">
<path d="M0.00443381 16.4214C-0.276355 4.26091 12.832 -4.28017 24.3373 2.39439C28.1276 4.59327 31.3452 7.84992 34.8049 11.4067C34.9621 11.5685 35.0348 11.5518 35.182 11.4015C40.5933 5.87916 48.4287 -2.54146 59.4035 0.734734C64.0222 2.11349 67.2316 5.14708 68.8759 9.71826C74.379 25.0172 58.5934 37.6835 45.0567 29.287C41.6425 27.1693 38.694 24.2472 35.2088 20.6538C35.0228 20.462 34.9389 20.4892 34.7687 20.6628C30.8092 24.705 26.547 29.0988 21.2825 30.9382C10.5696 34.6812 0.299804 28.2186 0.00443381 16.4214ZM6.70804 16.1857C7.04959 23.2101 12.387 26.4848 18.0739 25.2396C22.9886 24.1634 27.1114 19.7876 30.6229 16.1332C30.7412 16.0101 30.6749 15.9601 30.5936 15.8833C27.5437 13.0012 24.5652 9.48072 20.8114 7.66904C13.536 4.15777 6.68356 9.30716 6.70804 16.1857ZM63.2774 15.8888C63.0612 9.10014 57.7708 5.40071 51.6746 6.84831C46.878 7.98728 42.7793 12.3424 39.3739 15.8845C39.2558 16.0074 39.3011 16.0648 39.398 16.1562C43.6557 20.1787 48.6801 26.5297 55.4684 25.3722C59.9902 24.6012 63.2875 20.6141 63.2774 15.8888Z" fill="#B9D2F9"/>
</svg>
